<svg xmlns="http://www.w3.org/2000/svg" viewBox="0 0 1500 1500"><defs><style>.cls-1{fill:red;}.cls-2{fill:#fff;}</style></defs><g id="Layer_2" data-name="Layer 2"><g id="Layer_1-2" data-name="Layer 1"><circle class="cls-1" cx="750" cy="750" r="750"/><path class="cls-2" d="M737.5,990c-9.9-33.42-18.5-66.83-26.78-100.25S694.79,822.92,687.5,789.5s-14.37-66.83-20.62-100.25S655.22,622.42,650,589a505.36,505.36,0,0,0-10.68-50.12c-4.33-16.71-9.21-33.42-13.07-50.13-1.91-8.35-3.49-16.71-4.66-25.06a207.37,207.37,0,0,1-1.91-25.07A218.56,218.56,0,0,1,625,388.5a395.87,395.87,0,0,1,36.6-100.25c2.13-4.18,4.53-8.35,6.84-12.53s4.86-8.36,7.5-12.53c5.19-8.36,10.79-16.71,16.9-25.07s12.75-16.7,20-25.06A273.65,273.65,0,0,1,737.5,188h25a273.65,273.65,0,0,1,24.64,25.06c7.27,8.36,13.9,16.71,20,25.06s11.71,16.71,16.9,25.07c2.64,4.17,5.05,8.35,7.5,12.53s4.71,8.35,6.84,12.53A395.87,395.87,0,0,1,875,388.5a218.56,218.56,0,0,1,5.32,50.12,207.37,207.37,0,0,1-1.91,25.07c-1.17,8.35-2.75,16.71-4.66,25.06-3.86,16.71-8.74,33.42-13.07,50.13A505.36,505.36,0,0,0,850,589c-5.22,33.42-10.63,66.83-16.88,100.25S819.78,756.08,812.5,789.5s-15,66.83-23.22,100.25S772.4,956.58,762.5,990Z"/><circle class="cls-2" cx="749.5" cy="1180.5" r="75.4"/></g></g></svg>